<?xml version="1.0" encoding="UTF-8"?>
<!DOCTYPE svg PUBLIC "-//W3C//DTD SVG 1.1//EN" "http://www.w3.org/Graphics/SVG/1.1/DTD/svg11.dtd">
<!-- Creator: CorelDRAW -->
<svg xmlns="http://www.w3.org/2000/svg" xml:space="preserve" width="84.6666mm" height="84.6666mm" version="1.1" style="shape-rendering:geometricPrecision; text-rendering:geometricPrecision; image-rendering:optimizeQuality; fill-rule:evenodd; clip-rule:evenodd"
viewBox="0 0 8466.66 8466.66"
 xmlns:xlink="http://www.w3.org/1999/xlink"
 xmlns:xodm="http://www.corel.com/coreldraw/odm/2003">
 <defs>
  <style type="text/css">
   <![CDATA[
    .fil0 {fill:#F58834}
   ]]>
  </style>
 </defs>
 <g id="Слой_x0020_1">
  <metadata id="CorelCorpID_0Corel-Layer"/>
  <path class="fil0" d="M7341.6 6197.21c-772.91,-367.1 -1486.31,16.71 -2309.92,105.53 1241.92,-1339.73 -597.14,-1252.7 -1367.49,-922.75 271.94,-261.85 404.97,-425.14 544.67,-839.6 59.02,-231.43 813.06,-26.39 566.89,-557.47 271.16,-200.64 486.48,-434.38 619.43,-681.5 247.9,533.21 563.62,784.12 792.5,1259.13 241.35,500.88 662.96,1067.04 1153.92,1636.66zm-4246.89 -290.82l-1955.88 1662.7c903.17,-1857.33 1699.94,-2888.43 2322.56,-4446.32 63.05,-563.21 -402.87,-473.84 -399.59,-572.18 1008.35,-352.31 986.77,-373.65 1491.04,-665.25 697.25,-403.2 879.2,-741.27 1876.19,-1386.91 -596.65,896.84 -840.35,1255.35 -1233.19,1852.83 -39.67,233.51 -57.3,286.28 0,726.97 -62.24,328.31 -473.3,460.79 -738.7,800.42l88.61 -339.02c33.84,-129.51 -211.5,-103.82 -299.67,113.42 -88.17,217.23 -270.5,258.6 -486.6,1101.93 -221.6,383.8 -578.03,390.03 -664.77,1151.41z"/>
 </g>
</svg>
